<svg width="16" height="16" viewBox="0 0 16 16" fill="none" xmlns="http://www.w3.org/2000/svg">
<path d="M15.9517 4.70137C15.9129 3.85002 15.7774 3.26851 15.5798 2.75969C15.3791 2.22597 15.0639 1.74254 14.6571 1.34275C14.2578 0.935993 13.7738 0.620842 13.2401 0.419703C12.7312 0.222049 12.1496 0.087127 11.2982 0.0482932C10.4453 0.0094595 10.1724 0 8 0C5.8276 0 5.55474 0.0094595 4.70181 0.0482932C3.85038 0.087127 3.26881 0.222547 2.75994 0.420201C2.22568 0.62134 1.7422 0.935993 1.34288 1.34325C0.93608 1.74254 0.6209 2.22597 0.419742 2.76018C0.22207 3.269 0.0871351 3.85051 0.0482978 4.70187C0.00896247 5.55522 0 5.82755 0 8.00025C0 10.1729 0.00946039 10.4453 0.0482978 11.2986C0.0871351 12.15 0.222568 12.7315 0.42024 13.2403C0.6209 13.774 0.93608 14.2575 1.34288 14.6572C1.7422 15.064 2.22618 15.3792 2.75994 15.5798C3.26881 15.7775 3.85038 15.9129 4.70181 15.9517C5.55474 15.9905 5.8276 16 8 16C10.1724 16 10.4453 15.991 11.2982 15.9517C12.1496 15.9129 12.7312 15.7775 13.2401 15.5798C14.3146 15.1646 15.164 14.3147 15.5798 13.2403C15.7774 12.7315 15.9129 12.15 15.9517 11.2986C15.9905 10.4453 16 10.1729 16 8.00025C16 5.82755 15.9905 5.55472 15.9517 4.70137ZM14.5117 11.2319C14.4764 12.0121 14.3459 12.4353 14.2364 12.7171C13.967 13.4146 13.4158 13.9662 12.7182 14.2351C12.4364 14.3446 12.0127 14.475 11.233 14.5104C10.3895 14.5487 10.1366 14.5572 8.0005 14.5572C5.86394 14.5572 5.611 14.5492 4.76803 14.5104C3.9883 14.475 3.56457 14.3446 3.28275 14.2351C2.93521 14.1066 2.62102 13.9025 2.3631 13.6366C2.09722 13.3787 1.89307 13.0646 1.76461 12.7171C1.65507 12.4353 1.52462 12.0116 1.48926 11.2319C1.45092 10.3885 1.44246 10.1356 1.44246 7.99975C1.44246 5.8639 1.45043 5.61098 1.48926 4.76759C1.52362 3.98693 1.65358 3.56374 1.76312 3.28195C1.89158 2.93444 2.09622 2.61978 2.36161 2.36189C2.62003 2.09603 2.93421 1.8919 3.28176 1.76345C3.56358 1.65392 3.9873 1.52348 4.76704 1.48813C5.61051 1.44979 5.86345 1.44183 7.9995 1.44183C10.1356 1.44183 10.3885 1.44979 11.232 1.48863C12.0122 1.52398 12.4354 1.65442 12.7172 1.76395C13.0648 1.8924 13.379 2.09652 13.6369 2.36239C13.9028 2.62028 14.1069 2.93493 14.2354 3.28245C14.3449 3.56424 14.4754 3.98793 14.5107 4.76759C14.5491 5.61098 14.5575 5.8639 14.5575 7.99975C14.5575 10.1356 14.5501 10.3885 14.5117 11.2319Z" fill="#F4D81A"/>
<path d="M7.9994 3.89182C5.7304 3.89182 3.8916 5.73094 3.8916 7.99923C3.8916 10.2675 5.7309 12.1071 7.9994 12.1071C10.2684 12.1071 12.1077 10.268 12.1077 7.99923C12.1077 5.73044 10.2684 3.89182 7.9994 3.89182ZM7.9994 10.6658C6.52707 10.6658 5.33307 9.47193 5.33307 7.99923C5.33307 6.52654 6.52707 5.33265 7.9999 5.33265C9.47273 5.33265 10.6667 6.52654 10.6667 7.99923C10.6667 9.47193 9.47223 10.6658 7.9994 10.6658Z" fill="#F4D81A"/>
<path d="M13.2305 3.72954C13.2305 4.25977 12.8008 4.68943 12.2705 4.68943C11.7402 4.68943 11.3105 4.25977 11.3105 3.72954C11.3105 3.19931 11.7402 2.76965 12.2705 2.76965C12.8008 2.76965 13.2305 3.19931 13.2305 3.72954Z" fill="#F4D81A"/>
</svg>
