<svg width="16" height="17" viewBox="0 0 16 17" fill="none" xmlns="http://www.w3.org/2000/svg">
<path d="M0.263115 5.31691H3.57997V16.0131H0.263115V5.31691ZM1.92163 0C2.98174 0 3.84326 0.863754 3.84326 1.92838C3.84326 2.99195 2.98174 3.8557 1.92163 3.8557C0.859036 3.8557 0 2.99195 0 1.92838C0 0.863754 0.859036 0 1.92163 0Z" fill="#F4D81A"/>
<path d="M5.65918 5.31693H8.83968V6.77957H8.88501C9.32769 5.93827 10.4097 5.05206 12.0223 5.05206C15.3801 5.05206 15.9998 7.2667 15.9998 10.1467V16.0131H12.6854V10.8115C12.6854 9.57081 12.6639 7.97538 10.9624 7.97538C9.23684 7.97538 8.97355 9.32769 8.97355 10.7224V16.0131H5.65918V5.31693Z" fill="#F4D81A"/>
</svg>
