<svg width="142" height="20" viewBox="0 0 142 20" fill="none" xmlns="http://www.w3.org/2000/svg">
<g clip-path="url(#clip0_119_10)">
<path d="M15.0831 1.73062L15.0737 1.72546C13.5913 0.925689 11.9498 0.5 10.1568 0.5C8.34038 0.5 6.69529 0.924886 5.23206 1.75504C3.74579 2.58396 2.5994 3.71148 1.74916 5.15637C0.892506 6.61216 0.496582 8.24894 0.496582 10C0.496582 11.7771 0.892834 13.3884 1.74916 14.8436C2.59734 16.285 3.74233 17.4395 5.23212 18.2703C6.69966 19.1029 8.34584 19.5 10.1568 19.5C11.9441 19.5 13.5885 19.1022 15.0784 18.272C16.5461 17.4655 17.6915 16.3095 18.5391 14.869C19.3932 13.4176 19.8168 11.8074 19.8168 10C19.8168 8.21872 19.3935 6.583 18.5391 5.13101C17.6889 3.68614 16.5429 2.55926 15.0831 1.73062ZM13.9192 16.3569L13.9161 16.3586C12.7886 16.9973 11.5394 17.3084 10.1568 17.3084C8.74804 17.3084 7.49907 16.9969 6.37216 16.3586L6.36522 16.3547C5.24126 15.7416 4.37553 14.8712 3.73969 13.7566L3.73572 13.7497C3.08276 12.646 2.77351 11.3933 2.77351 10C2.77351 8.60843 3.082 7.38066 3.73572 6.27562L3.73969 6.26878C4.37462 5.15574 5.24062 4.28318 6.36871 3.64338C7.50362 3.02502 8.75548 2.69155 10.1568 2.69155C11.5313 2.69155 12.7826 3.02427 13.9176 3.64229C15.0205 4.28158 15.889 5.15511 16.5505 6.27223C17.1846 7.38507 17.5147 8.61605 17.5147 10C17.5147 11.3856 17.1839 12.6416 16.5505 13.7531C15.8876 14.8725 15.0189 15.7442 13.9192 16.3569Z" fill="#000F08" stroke="#000F08"/>
<path d="M39.8559 1.32965L40.1673 0.626099H39.4024H38.0682H37.746L37.6148 0.922295L30.9436 15.9727L24.2726 0.922295L24.1412 0.626099H23.8192H22.4094H21.6445L21.9559 1.32965L29.8104 19.0761L29.9417 19.3726H30.2639H31.5479H31.8701L32.0014 19.0761L39.8559 1.32965Z" fill="#000F08" stroke="#000F08"/>
<path d="M56.2434 9.2896V8.7896H55.7469H44.3427H43.8462V9.2896V10.4305V10.9305H44.3427H55.7469H56.2434V10.4305V9.2896ZM56.2434 1.12622V0.626221H55.7469H44.3427H43.8462V1.12622V2.29242V2.79242H44.3427H55.7469H56.2434V2.29242V1.12622ZM44.3427 17.2065H43.8462V17.7065V18.8727V19.3727H44.3427H55.7469H56.2434V18.8727V17.7065V17.2065H55.7469H44.3427Z" fill="#000F08" stroke="#000F08"/>
<path d="M73.3885 12.9205C74.4819 12.497 75.3845 11.8514 76.0404 10.9551C76.8144 9.89737 77.2197 8.62471 77.2197 7.1092C77.2197 5.13163 76.5405 3.51285 75.1545 2.34043C73.7793 1.17721 71.9154 0.626099 69.6239 0.626099H63.3051H62.8086V1.1261V2.29229V2.79229H63.3051H69.6239C71.4149 2.79229 72.7219 3.20655 73.6104 3.94359C74.4607 4.66934 74.9176 5.7101 74.9176 7.1092C74.9176 8.53512 74.4597 9.57522 73.6105 10.3001C72.7255 11.0342 71.4216 11.4261 69.6239 11.4261H63.3051H62.8086V11.9261V18.8733V19.3733H63.3051H64.589H65.0855V18.8733V13.5676H69.6239C70.0626 13.5676 70.5631 13.549 71.1073 13.479L75.1359 19.1637L75.2843 19.3733H75.54H77.0001H77.9649L77.4042 18.5827L73.3885 12.9205Z" fill="#000F08" stroke="#000F08"/>
<path d="M98.3939 1.12596V0.625965H97.8974H96.6135H96.117V1.12596V8.78934H85.3281V1.12561V0.62561H84.8316H83.5478H83.0513V1.12561V18.8721V19.3721H83.5478H84.8316H85.3281V18.8721V10.9298H96.117V18.8717V19.3717H96.6135H97.8974H98.3939V18.8717V1.12596Z" fill="#000F08" stroke="#000F08"/>
<path d="M118.552 1.73062L118.542 1.72546C117.06 0.925689 115.418 0.5 113.626 0.5C111.809 0.5 110.164 0.924886 108.7 1.75504C107.214 2.58396 106.068 3.71148 105.218 5.15637C104.361 6.61216 103.965 8.24894 103.965 10C103.965 11.7771 104.361 13.3884 105.218 14.8436C106.066 16.285 107.211 17.4395 108.7 18.2703C110.168 19.1029 111.815 19.5 113.626 19.5C115.412 19.5 117.058 19.1022 118.547 18.272C120.015 17.4655 121.16 16.3095 122.008 14.869C122.862 13.4176 123.286 11.8074 123.286 10C123.286 8.21872 122.862 6.583 122.008 5.13101C121.158 3.68614 120.012 2.55926 118.552 1.73062ZM117.388 16.3569L117.384 16.3586C116.257 16.9973 115.008 17.3084 113.626 17.3084C112.217 17.3084 110.968 16.9969 109.84 16.3586L109.834 16.3547C108.709 15.7416 107.845 14.8712 107.208 13.7566L107.204 13.7497C106.552 12.646 106.242 11.3933 106.242 10C106.242 8.60843 106.551 7.38066 107.204 6.27562L107.208 6.26878C107.844 5.15574 108.709 4.28318 109.837 3.64338C110.972 3.02502 112.224 2.69155 113.626 2.69155C115 2.69155 116.251 3.02427 117.386 3.64229C118.49 4.28158 119.357 5.15511 120.019 6.27221C120.653 7.38506 120.983 8.61604 120.983 10C120.983 11.3856 120.652 12.6416 120.019 13.7531C119.356 14.8726 118.488 15.7442 117.388 16.3569Z" fill="#000F08" stroke="#000F08"/>
<path d="M129.341 0.626098L128.845 0.62637V1.1261V18.8725V19.3725H129.341H140.771H141.267V18.8725V17.7064V17.2064H140.771H131.121V1.1254V0.625122L130.623 0.625394L129.341 0.626098Z" fill="#000F08" stroke="#000F08"/>
</g>
<defs>
<clipPath id="clip0_119_10">
<rect width="142" height="20" fill="white"/>
</clipPath>
</defs>
</svg>
